<svg width="86" height="80" viewBox="0 0 86 80" fill="none" xmlns="http://www.w3.org/2000/svg">
<path d="M85.9369 40C85.9369 62.0914 66.6993 80 42.9685 80C19.2376 80 0 62.0914 0 40C0 17.9086 19.2376 0 42.9685 0C66.6993 0 85.9369 17.9086 85.9369 40Z" fill="#A3BAD2"/>
<path d="M85.9369 40C85.9369 62.0914 66.6993 80 42.9685 80C19.2376 80 0 62.0914 0 40C0 17.9086 19.2376 0 42.9685 0C66.6993 0 85.9369 17.9086 85.9369 40Z" stroke="black"/>
<rect x="3.85901" y="13.2034" width="39.2124" height="57.5865" rx="5" transform="rotate(-4.33236 3.85901 13.2034)" fill="#112236"/>
<rect x="42.8233" y="10.2412" width="40.208" height="57.1783" rx="5" transform="rotate(3.20259 42.8233 10.2412)" fill="#112236"/>
<rect x="5.34326" y="14.7442" width="37.9963" height="55.9555" rx="5" transform="rotate(-4.33236 5.34326 14.7442)" fill="white"/>
<rect x="42.8846" y="11.8932" width="37.9963" height="55.9555" rx="5" transform="rotate(3.20259 42.8846 11.8932)" fill="white"/>
<path d="M9.56604 24.1121L40.8839 21.1576" stroke="#436280"/>
<path d="M9.86285 29.6038L41.1808 26.6492" stroke="#436280"/>
<path d="M10.605 35.0954L41.9229 32.1409" stroke="#436280"/>
<path d="M10.605 40.5871L41.9229 37.6325" stroke="#436280"/>
<path d="M10.7534 46.0787L42.0713 43.1242" stroke="#436280"/>
<path d="M10.9017 51.5704L42.2196 48.6159" stroke="#436280"/>
<path d="M10.9017 57.062L42.2196 54.1075" stroke="#436280"/>
<path d="M11.4955 62.5536L42.8134 59.5991" stroke="#436280"/>
<path d="M46.8331 21.6017L78.1509 24.113" stroke="#436280"/>
<path d="M46.8331 26.6481L78.1509 29.1594" stroke="#436280"/>
<path d="M46.8331 31.6945L78.1509 34.2058" stroke="#436280"/>
<path d="M46.8331 36.7409L78.1509 39.2522" stroke="#436280"/>
<path d="M46.8331 41.6388L78.1509 44.1502" stroke="#436280"/>
<path d="M45.6458 46.6852L76.9635 49.1965" stroke="#436280"/>
<path d="M45.6458 51.7316L76.9635 54.2429" stroke="#436280"/>
<path d="M45.6458 58.1138L76.9635 60.6251" stroke="#436280"/>
<path d="M42.9498 11.8932V67.7003" stroke="#999999" stroke-width="5"/>
<rect x="21.3729" y="39.7774" width="37.2542" height="23.5993" rx="11.7996" fill="#112236"/>
<circle cx="53.2839" cy="29.6846" r="13.3581" fill="#112236"/>
<circle cx="29.0909" cy="29.6846" r="11.8738" fill="#112236"/>
<path d="M62.9545 58.3246L60.013 57.2391C57.4856 56.3063 55.807 53.8976 55.807 51.2036C55.807 48.3609 57.6727 45.8552 60.3961 45.0403L63.3999 44.1414C68.198 42.7057 73.0241 46.2991 73.0241 51.3074C73.0241 56.5133 67.8384 60.127 62.9545 58.3246Z" fill="#112236"/>
<ellipse cx="46.8274" cy="29.6846" rx="3.33952" ry="2.82004" fill="white"/>
<ellipse cx="23.3024" cy="29.6846" rx="2.96846" ry="2.52319" fill="white"/>
<ellipse cx="53.2838" cy="23.525" rx="3.33952" ry="2.82004" transform="rotate(90 53.2838 23.525)" fill="white"/>
<ellipse cx="29.0909" cy="24.1929" rx="2.96846" ry="2.52319" transform="rotate(90 29.0909 24.1929)" fill="white"/>
<ellipse cx="60.0371" cy="29.6846" rx="3.33952" ry="2.82004" fill="white"/>
<ellipse cx="35.0278" cy="29.6846" rx="2.96846" ry="2.52319" fill="white"/>
<ellipse cx="53.2838" cy="35.8442" rx="3.33952" ry="2.82004" transform="rotate(90 53.2838 35.8442)" fill="white"/>
<ellipse cx="29.0909" cy="35.1763" rx="2.96846" ry="2.52319" transform="rotate(90 29.0909 35.1763)" fill="white"/>
</svg>
